<svg width="20" height="20" viewBox="0 0 20 20" fill="none" xmlns="http://www.w3.org/2000/svg">
<path d="M7.50008 18.3333H12.5001C16.6667 18.3333 18.3334 16.6667 18.3334 12.5V7.49999C18.3334 3.33332 16.6667 1.66666 12.5001 1.66666H7.50008C3.33341 1.66666 1.66675 3.33332 1.66675 7.49999V12.5C1.66675 16.6667 3.33341 18.3333 7.50008 18.3333Z" stroke="#7F8190" stroke-width="1.5" stroke-linecap="round" stroke-linejoin="round"/>
<path d="M14.1666 2.03333V10.35C14.1666 11.9917 12.9916 12.6333 11.5499 11.7667L10.4499 11.1083C10.1999 10.9583 9.79992 10.9583 9.54992 11.1083L8.44992 11.7667C7.00825 12.625 5.83325 11.9917 5.83325 10.35V2.03333" stroke="#7F8190" stroke-width="1.5" stroke-linecap="round" stroke-linejoin="round"/>
<path d="M7.50008 18.3333H12.5001C16.6667 18.3333 18.3334 16.6667 18.3334 12.5V7.49999C18.3334 3.33332 16.6667 1.66666 12.5001 1.66666H7.50008C3.33341 1.66666 1.66675 3.33332 1.66675 7.49999V12.5C1.66675 16.6667 3.33341 18.3333 7.50008 18.3333Z" stroke="#7F8190" stroke-width="1.5" stroke-linecap="round" stroke-linejoin="round"/>
<path d="M14.1666 2.03333V10.35C14.1666 11.9917 12.9916 12.6333 11.5499 11.7667L10.4499 11.1083C10.1999 10.9583 9.79992 10.9583 9.54992 11.1083L8.44992 11.7667C7.00825 12.625 5.83325 11.9917 5.83325 10.35V2.03333" stroke="#7F8190" stroke-width="1.5" stroke-linecap="round" stroke-linejoin="round"/>
</svg>
