<svg width="18" height="18" viewBox="0 0 18 18" fill="none" xmlns="http://www.w3.org/2000/svg">
<path d="M9 11.8125C9.8875 11.8125 10.6406 11.5031 11.2594 10.8844C11.8781 10.2656 12.1875 9.5125 12.1875 8.625C12.1875 7.7375 11.8781 6.98438 11.2594 6.36563C10.6406 5.74688 9.8875 5.4375 9 5.4375C8.1125 5.4375 7.35938 5.74688 6.74063 6.36563C6.12188 6.98438 5.8125 7.7375 5.8125 8.625C5.8125 9.5125 6.12188 10.2656 6.74063 10.8844C7.35938 11.5031 8.1125 11.8125 9 11.8125ZM9 10.725C8.4125 10.725 7.91562 10.5219 7.50937 10.1156C7.10312 9.70938 6.9 9.2125 6.9 8.625C6.9 8.0375 7.10312 7.54062 7.50937 7.13437C7.91562 6.72812 8.4125 6.525 9 6.525C9.5875 6.525 10.0844 6.72812 10.4906 7.13437C10.8969 7.54062 11.1 8.0375 11.1 8.625C11.1 9.2125 10.8969 9.70938 10.4906 10.1156C10.0844 10.5219 9.5875 10.725 9 10.725ZM9 14.25C7.175 14.25 5.525 13.7312 4.05 12.6937C2.575 11.6562 1.475 10.3 0.75 8.625C1.475 6.95 2.575 5.59375 4.05 4.55625C5.525 3.51875 7.175 3 9 3C10.825 3 12.475 3.51875 13.95 4.55625C15.425 5.59375 16.525 6.95 17.25 8.625C16.525 10.3 15.425 11.6562 13.95 12.6937C12.475 13.7312 10.825 14.25 9 14.25Z" fill="#7F8190"/>
</svg>
