<svg width="15" height="14" viewBox="0 0 15 14" fill="none" xmlns="http://www.w3.org/2000/svg">
<path d="M7.5 13.8719L6.73125 13.1781C5.40625 11.9656 4.3125 10.9187 3.45 10.0375C2.5875 9.15624 1.9 8.36874 1.3875 7.67499C0.875 6.98124 0.515625 6.35311 0.309375 5.79061C0.103125 5.22811 0 4.65936 0 4.08436C0 2.95936 0.378125 2.01874 1.13437 1.26249C1.89062 0.506238 2.825 0.128113 3.9375 0.128113C4.65 0.128113 5.30937 0.296863 5.91562 0.634363C6.52187 0.971863 7.05 1.45936 7.5 2.09686C8.025 1.42186 8.58125 0.924987 9.16875 0.606238C9.75625 0.287488 10.3875 0.128113 11.0625 0.128113C12.175 0.128113 13.1094 0.506238 13.8656 1.26249C14.6219 2.01874 15 2.95936 15 4.08436C15 4.65936 14.8969 5.22811 14.6906 5.79061C14.4844 6.35311 14.125 6.98124 13.6125 7.67499C13.1 8.36874 12.4125 9.15624 11.55 10.0375C10.6875 10.9187 9.59375 11.9656 8.26875 13.1781L7.5 13.8719Z" fill="#7F8190"/>
</svg>
