<svg width="15" height="15" viewBox="0 0 15 15" fill="none" xmlns="http://www.w3.org/2000/svg">
<path d="M7.5 14.3719L6.73125 13.6781C5.40625 12.4656 4.3125 11.4187 3.45 10.5375C2.5875 9.65624 1.9 8.86874 1.3875 8.17499C0.875 7.48124 0.515625 6.85311 0.309375 6.29061C0.103125 5.72811 0 5.15936 0 4.58436C0 3.45936 0.378125 2.51874 1.13437 1.76249C1.89062 1.00624 2.825 0.628113 3.9375 0.628113C4.65 0.628113 5.30937 0.796863 5.91562 1.13436C6.52187 1.47186 7.05 1.95936 7.5 2.59686C8.025 1.92186 8.58125 1.42499 9.16875 1.10624C9.75625 0.787488 10.3875 0.628113 11.0625 0.628113C12.175 0.628113 13.1094 1.00624 13.8656 1.76249C14.6219 2.51874 15 3.45936 15 4.58436C15 5.15936 14.8969 5.72811 14.6906 6.29061C14.4844 6.85311 14.125 7.48124 13.6125 8.17499C13.1 8.86874 12.4125 9.65624 11.55 10.5375C10.6875 11.4187 9.59375 12.4656 8.26875 13.6781L7.5 14.3719Z" fill="#EEEEF1"/>
</svg>
