<svg width="15" height="15" viewBox="0 0 15 15" fill="none" xmlns="http://www.w3.org/2000/svg">
<path d="M7.5 14.3719L6.73125 13.6781C5.40625 12.4656 4.3125 11.4188 3.45 10.5375C2.5875 9.65625 1.9 8.86875 1.3875 8.175C0.875 7.48125 0.515625 6.85313 0.309375 6.29063C0.103125 5.72813 0 5.15938 0 4.58438C0 3.45938 0.378125 2.51875 1.13437 1.7625C1.89062 1.00625 2.825 0.628128 3.9375 0.628128C4.65 0.628128 5.30937 0.796878 5.91562 1.13438C6.52187 1.47188 7.05 1.95938 7.5 2.59688C8.025 1.92188 8.58125 1.425 9.16875 1.10625C9.75625 0.787503 10.3875 0.628128 11.0625 0.628128C12.175 0.628128 13.1094 1.00625 13.8656 1.7625C14.6219 2.51875 15 3.45938 15 4.58438C15 5.15938 14.8969 5.72813 14.6906 6.29063C14.4844 6.85313 14.125 7.48125 13.6125 8.175C13.1 8.86875 12.4125 9.65625 11.55 10.5375C10.6875 11.4188 9.59375 12.4656 8.26875 13.6781L7.5 14.3719Z" fill="#7F8190"/>
</svg>
